<?xml version="1.0" standalone="no"?>
<!DOCTYPE svg PUBLIC "-//W3C//DTD SVG 20010904//EN"
 "http://www.w3.org/TR/2001/REC-SVG-20010904/DTD/svg10.dtd">
<svg version="1.0" xmlns="http://www.w3.org/2000/svg"
 width="260.000000pt" height="260.000000pt" viewBox="0 0 260.000000 260.000000"
 preserveAspectRatio="xMidYMid meet">
<metadata>
Created by potrace 1.14, written by Peter Selinger 2001-2017
</metadata>
<g transform="translate(0.000000,260.000000) scale(0.100000,-0.100000)"
fill="#000000" stroke="none">
<path d="M286 2460 c-58 -23 -109 -69 -139 -125 l-22 -40 -2 -985 c-3 -896 -1
-990 14 -1028 21 -56 76 -118 127 -145 l41 -22 990 -2 c975 -2 991 -2 1035 18
55 25 105 71 133 124 l22 40 0 1000 0 1000 -22 41 c-24 44 -74 93 -126 121
-30 17 -96 18 -1017 20 -953 2 -987 2 -1034 -17z"/>
</g>
</svg>
