<?xml version="1.0" standalone="no"?>
<!DOCTYPE svg PUBLIC "-//W3C//DTD SVG 20010904//EN"
 "http://www.w3.org/TR/2001/REC-SVG-20010904/DTD/svg10.dtd">
<svg version="1.0" xmlns="http://www.w3.org/2000/svg"
 width="260.000000pt" height="260.000000pt" viewBox="0 0 260.000000 260.000000"
 preserveAspectRatio="xMidYMid meet">
<metadata>
Created by potrace 1.14, written by Peter Selinger 2001-2017
</metadata>
<g transform="translate(0.000000,260.000000) scale(0.100000,-0.100000)"
fill="#000000" stroke="none">
<path d="M310 2471 c-69 -22 -130 -73 -166 -141 -18 -33 -19 -79 -19 -1035 0
-956 1 -1002 19 -1035 26 -49 74 -98 121 -123 l40 -22 1000 0 c938 0 1002 1
1032 18 52 28 102 77 126 121 l22 41 0 1000 0 1000 -22 40 c-25 47 -74 95
-123 121 -33 18 -80 19 -1020 21 -542 1 -996 -2 -1010 -6z m766 -562 c69 -13
165 -56 214 -97 l34 -29 -32 -40 c-143 -182 -128 -444 36 -612 107 -108 265
-158 410 -129 83 17 79 20 62 -73 -46 -240 -282 -409 -521 -372 -200 31 -358
187 -391 386 -10 63 -12 65 -48 76 -54 16 -150 82 -193 132 -89 103 -131 251
-108 380 33 184 176 335 354 374 78 17 109 18 183 4z"/>
</g>
</svg>
